# xmcd CD database file
#
# Track frame offsets:
#	150
#	32224
#	54939
#	78622
#	104506
#	131893
#	149436
#	175156
#	201551
#	222941
#	253492
#	266884
#	291310
#	309182
#
# Disc length: 4456 seconds
#
# Revision: 0
# Processed by: cddbd v1.5.2PL0 Copyright (c) Steve Scherf et al.
# Submitted via: CDex 1.70beta2
#
DISCID=e711660e
DTITLE=Various Jazz - Blue Note Umbria Jazz 2010 [CD 2)
DYEAR=2010
DGENRE=Jazz
TTITLE0=Watermelon Man - Herbie Hancock
TTITLE1=I contentrate on you - Patricia Barber
TTITLE2=Head Start - Bobby Hutcherson
TTITLE3=Parisienne Girl - Incognito
TTITLE4=The Weight - Cassandra Wilson
TTITLE5=America - Billy Charlap Trio
TTITLE6=Why dont I - Sonny Rollins
TTITLE7=Fee-Fi-Fo-Fum - Wayne Shorter
TTITLE8=Oren - Ganzalo Rubalcaba
TTITLE9=Karibu - Lionel Loueke
TTITLE10=Pannonica - Chick Corea
TTITLE11=Quit Rising - John Scofield
TTITLE12=No More Blues - Ron Carter
TTITLE13=Man in the Air - Kurt Elling
EXTD=YEAR: 2010
EXTT0=
EXTT1=
EXTT2=
EXTT3=
EXTT4=
EXTT5=
EXTT6=
EXTT7=
EXTT8=
EXTT9=
EXTT10=
EXTT11=
EXTT12=
EXTT13=
PLAYORDER=
